{"title":"Boxing Miguel Cotto vs Sergio Martinez 7th June 2014 PDTV x264-S","uid":10323033,"size":583497605,"categoryP":"video","categoryS":"tv_shows","magnet":"?xt=urn:btih:c3b869ce9d74c3ead94fb3beaa635e554ab99e75&amp;dn=Boxing+Miguel+Cotto+vs+Sergio+Martinez+7th+June+2014+PDTV+x264-S&amp;tr=udp%3A%2F%2Ftracker.openbittorrent.com%3A80&amp;tr=udp%3A%2F%2Fopen.demonii.com%3A1337&amp;tr=udp%3A%2F%2Ftracker.coppersurfer.tk%3A6969&amp;tr=udp%3A%2F%2Fexodus.desync.com%3A6969","seeders":6,"leechers":0,"uploader":"jibbajabbax","files":1,"time":1402327229,"description":"Boxing Miguel Cotto vs Sergio Martinez 7th June 2014 PDTV x264-Sir Paul\n\n\nGeneral\nComplete name                            : Boxing.Miguel.Cotto.vs.Sergio.Martinez.7th.June.2014.PDTV.x264-Sir.Paul.mp4\nFormat                                   : MPEG-4\nFormat profile                           : Base Media / Version 2\nCodec ID                                 : mp42\nFile size                                : 556 MiB\nDuration                                 : 1h 2mn\nOverall bit rate mode                    : Variable\nOverall bit rate                         : 1 236 Kbps\nEncoded date                             : UTC 2014-06-08 08:07:35\nTagged date                              : UTC 2014-06-08 08:25:27\nWriting application                      : HandBrake 0.9.9 2013051800\n\nVideo\nID                                       : 1\nFormat                                   : AVC\nFormat/Info                              : Advanced Video Codec\nFormat profile                           : &lt;a class=&quot;__cf_email__&quot; href=&quot;/cdn-cgi/l/email-protection&quot; data-cfemail=&quot;95d8f4fcfbd5d9a6bba5&quot;&gt;[email&amp;#160;protected]&lt;/a&gt;&lt;script cf-hash='f9e31' type=&quot;text/javascript&quot;&gt;\n/* &lt;![CDATA[ */!function(){try{var t=&quot;currentScript&quot;in document?document.currentScript:function(){for(var t=document.getElementsByTagName(&quot;script&quot;),e=t.length;e--;)if(t[e].getAttribute(&quot;cf-hash&quot;))return t[e]}();if(t&amp;&amp;t.previousSibling){var e,r,n,i,c=t.previousSibling,a=c.getAttribute(&quot;data-cfemail&quot;);if(a){for(e=&quot;&quot;,r=parseInt(a.substr(0,2),16),n=2;a.length-n;n+=2)i=parseInt(a.substr(n,2),16)^r,e+=String.fromCharCode(i);e=document.createTextNode(e),c.parentNode.replaceChild(e,c)}}}catch(u){}}();/* ]]&gt; */&lt;/script&gt;\nFormat settings, CABAC                   : Yes\nFormat settings, ReFrames                : 4 frames\nCodec ID                                 : avc1\nCodec ID/Info                            : Advanced Video Coding\nDuration                                 : 1h 2mn\nBit rate                                 : 1 100 Kbps\nWidth                                    : 700 pixels\nHeight                                   : 400 pixels\nDisplay aspect ratio                     : 16:9\nFrame rate mode                          : Constant\nFrame rate                               : 29.970 fps\nColor space                              : YUV\nChroma subsampling                       : 4:2:0\nBit depth                                : 8 bits\nScan type                                : Progressive\nBits/(Pixel*Frame)                       : 0.131\nStream size                              : 482 MiB (87%)\nWriting library                          : x264 core 130 r2273 b3065e6\nEncoding settings                        : cabac=1 / ref=3 / deblock=1:0:0 / analyse=0x1:0x111 / me=hex / subme=2 / psy=1 / psy_rd=1.00:0.00 / mixed_ref=1 / me_range=16 / chroma_me=1 / trellis=0 / 8x8dct=0 / cqm=0 / deadzone=21,11 / fast_pskip=1 / chroma_qp_offset=0 / threads=12 / lookahead_threads=3 / sliced_threads=0 / nr=0 / decimate=1 / interlaced=0 / bluray_compat=0 / constrained_intra=0 / bframes=3 / b_pyramid=2 / b_adapt=1 / b_bias=0 / direct=1 / weightb=1 / open_gop=0 / weightp=1 / keyint=300 / keyint_min=30 / scenecut=40 / intra_refresh=0 / rc_lookahead=10 / rc=abr / mbtree=1 / bitrate=1100 / ratetol=1.0 / qcomp=0.60 / qpmin=0 / qpmax=69 / qpstep=4 / ip_ratio=1.40 / aq=1:1.00\nEncoded date                             : UTC 2014-06-08 08:07:35\nTagged date                              : UTC 2014-06-08 08:25:27\nColor primaries                          : BT.709\nTransfer characteristics                 : BT.709\nMatrix coefficients                      : BT.709\n\nAudio\nID                                       : 2\nFormat                                   : AAC\nFormat/Info                              : Advanced Audio Codec\nFormat profile                           : LC\nCodec ID                                 : 40\nDuration                                 : 1h 2mn\nBit rate mode                            : Variable\nBit rate                                 : 160 Kbps\nMaximum bit rate                         : 187 Kbps\nChannel(s)                               : 2 channels\nChannel positions                        : Front: L R\nSampling rate                            : 48.0 KHz\nCompression mode                         : Lossy\nStream size                              : 72.0 MiB (13%)\nLanguage                                 : English\nEncoded date                             : UTC 2014-06-08 08:07:35\nTagged date                              : UTC 2014-06-08 08:25:27\n","torrent":{"xt":"urn:btih:c3b869ce9d74c3ead94fb3beaa635e554ab99e75","amp;dn":"Boxing+Miguel+Cotto+vs+Sergio+Martinez+7th+June+2014+PDTV+x264-S","amp;tr":["udp%3A%2F%2Ftracker.openbittorrent.com%3A80","udp%3A%2F%2Fopen.demonii.com%3A1337","udp%3A%2F%2Ftracker.coppersurfer.tk%3A6969","udp%3A%2F%2Fexodus.desync.com%3A6969"],"infoHash":"c3b869ce9d74c3ead94fb3beaa635e554ab99e75","infoHashBuffer":{"type":"Buffer","data":[195,184,105,206,157,116,195,234,217,79,179,190,170,99,94,85,74,185,158,117]},"announce":[],"urlList":[]}}